<?xml version="1.0" standalone="no"?>
<!DOCTYPE svg PUBLIC "-//W3C//DTD SVG 20010904//EN"
 "http://www.w3.org/TR/2001/REC-SVG-20010904/DTD/svg10.dtd">
<svg version="1.0" xmlns="http://www.w3.org/2000/svg"
 width="1024.000000pt" height="1024.000000pt" viewBox="0 0 1024.000000 1024.000000"
 preserveAspectRatio="xMidYMid meet">

<g transform="translate(0.000000,1024.000000) scale(0.100000,-0.100000)"
fill="#000000" stroke="none">
<path d="M4935 9424 c-16 -2 -77 -9 -135 -15 -140 -14 -372 -61 -495 -100
-399 -124 -784 -424 -1036 -806 -142 -215 -261 -490 -364 -839 -161 -541 -236
-720 -413 -983 -200 -294 -233 -346 -280 -439 -95 -185 -134 -328 -134 -487 0
-156 33 -258 144 -440 69 -115 88 -164 95 -245 7 -95 -16 -179 -101 -360 -90
-191 -116 -269 -123 -380 -18 -270 113 -533 314 -632 64 -31 74 -33 175 -33
93 0 110 3 135 21 45 33 41 64 -17 155 -65 101 -80 145 -79 228 l1 66 8 -47
c36 -211 149 -323 388 -384 52 -13 106 -24 120 -24 42 0 16 -14 -143 -74 -286
-110 -550 -233 -688 -322 -322 -208 -554 -497 -705 -879 -153 -388 -309 -1085
-348 -1561 -6 -75 -5 -83 15 -103 26 -26 75 -27 99 -3 15 15 23 52 36 173 40
355 140 876 227 1179 195 687 492 1017 1179 1312 131 57 694 268 713 268 6 0
33 -42 59 -93 190 -371 533 -585 1083 -673 134 -22 519 -25 665 -6 328 44 601
141 836 297 153 102 263 228 359 412 20 40 44 73 51 73 17 0 500 -173 689
-247 325 -127 605 -289 769 -444 94 -89 209 -235 277 -351 189 -323 340 -883
454 -1688 15 -102 33 -195 40 -206 21 -32 52 -36 82 -9 l27 22 -18 139 c-43
333 -120 752 -188 1019 -177 698 -399 1058 -831 1345 -191 127 -431 240 -775
365 -73 26 -130 50 -127 53 3 3 37 14 76 24 195 49 347 171 406 326 14 36 14
35 9 -34 -6 -92 -35 -154 -97 -206 -49 -41 -58 -63 -39 -98 21 -39 139 -57
241 -36 208 44 372 191 446 401 25 72 28 93 27 210 0 115 -4 140 -28 215 -32
98 -57 149 -132 275 -140 235 -144 330 -30 598 134 315 146 529 46 829 -51
154 -101 247 -250 468 -241 359 -302 497 -460 1050 -186 648 -299 884 -550
1144 -245 254 -513 388 -779 388 -84 0 -100 3 -131 24 -59 39 -201 102 -280
123 -152 42 -372 61 -515 45z m580 -961 c14 -32 60 -110 102 -173 100 -149
245 -295 433 -436 152 -113 309 -261 377 -354 61 -83 130 -208 154 -275 19
-55 63 -255 57 -260 -2 -1 -37 -7 -78 -13 -74 -11 -75 -11 -119 19 -106 70
-252 94 -566 94 -364 -1 -478 -28 -599 -145 l-63 -60 -59 11 c-59 11 -305 8
-334 -5 -10 -4 -35 13 -75 52 -104 100 -181 126 -418 144 -123 9 -196 9 -325
0 -224 -16 -337 -43 -409 -98 -28 -22 -38 -24 -88 -18 -32 4 -59 13 -62 20 -5
15 26 144 68 277 l29 94 64 32 c71 35 188 109 287 182 59 43 81 52 230 93 465
127 722 253 951 465 111 102 228 262 338 458 l45 81 17 -63 c10 -35 29 -89 43
-122z m-1112 -1533 c113 -12 174 -32 224 -75 79 -67 103 -165 79 -317 -27
-163 -88 -302 -160 -364 -139 -119 -382 -156 -591 -90 -173 55 -258 148 -311
341 -21 78 -31 319 -15 368 24 72 102 115 246 136 82 12 420 13 528 1z m1747
0 c150 -19 205 -44 244 -110 18 -30 21 -49 19 -143 -8 -341 -108 -518 -338
-596 -95 -32 -281 -41 -375 -17 -87 22 -177 67 -233 117 -82 71 -150 247 -164
419 -15 197 85 307 300 330 111 11 452 11 547 0z m855 -129 c45 -20 85 -62
118 -125 19 -36 21 -56 20 -156 0 -67 -7 -143 -17 -182 -42 -177 -133 -344
-228 -415 -59 -44 -147 -97 -152 -92 -4 4 72 288 103 390 12 36 21 81 21 100
0 19 4 50 9 69 5 19 12 47 15 62 5 21 14 29 41 34 43 8 57 25 53 61 -5 41 -39
55 -94 36 -24 -8 -58 -25 -76 -37 -31 -20 -35 -31 -80 -211 -81 -323 -158
-604 -200 -735 -125 -392 -370 -716 -713 -949 -474 -320 -901 -365 -1360 -142
-328 160 -642 446 -808 736 -101 176 -151 331 -296 910 -100 403 -92 385 -197
424 -52 20 -58 20 -80 6 -16 -10 -24 -25 -24 -45 0 -32 9 -40 59 -55 33 -10
36 -15 52 -80 14 -53 15 -71 6 -77 -9 -6 -6 -18 11 -48 30 -53 122 -423 109
-436 -12 -12 -121 61 -188 126 -107 105 -177 271 -200 480 -13 114 2 194 50
264 35 51 65 72 125 88 87 23 144 -12 269 -165 21 -26 42 -47 46 -47 4 0 3 34
-2 75 -5 42 -7 78 -4 81 3 3 25 3 50 -1 l44 -7 7 -115 c9 -157 29 -240 87
-359 79 -163 182 -247 369 -305 63 -20 97 -24 215 -24 223 0 346 44 471 169
115 115 177 264 204 492 7 54 14 102 16 106 9 14 108 38 158 38 50 0 109 -13
133 -28 7 -4 21 -67 32 -140 38 -243 84 -355 196 -468 79 -81 152 -122 272
-155 67 -19 95 -21 218 -16 158 6 225 20 335 74 209 102 339 365 340 684 0 44
2 47 31 53 17 3 44 6 60 6 l29 0 0 -67 0 -68 83 87 c111 118 171 141 262 99z
m-1067 -2463 c14 -200 30 -295 60 -355 44 -85 137 -145 368 -238 l72 -29 -24
-53 c-56 -128 -198 -291 -330 -380 -188 -126 -400 -205 -664 -248 -158 -25
-463 -38 -603 -26 -560 51 -944 266 -1126 630 -18 34 -31 64 -29 66 2 2 44 21
93 42 187 80 303 162 340 239 27 57 45 171 51 334 4 85 10 163 13 172 5 15 29
3 145 -77 286 -195 479 -265 724 -265 266 1 557 114 822 319 36 27 67 50 70
50 3 1 11 -81 18 -181z"/>
<path d="M4079 7399 c-119 -12 -241 -63 -315 -131 -44 -41 -90 -105 -82 -114
3 -2 46 9 96 25 130 43 242 62 362 62 108 0 226 -23 289 -55 42 -22 94 -20
116 4 26 29 15 98 -20 126 -41 33 -170 73 -270 84 -49 5 -92 9 -95 9 -3 -1
-39 -5 -81 -10z"/>
<path d="M5700 7400 c-148 -26 -250 -86 -250 -149 0 -69 56 -89 144 -51 141
60 352 65 551 12 61 -16 134 -39 163 -50 28 -12 52 -18 52 -13 0 14 -73 104
-110 134 -83 70 -227 115 -390 122 -58 2 -130 0 -160 -5z"/>
<path d="M4145 6726 c-62 -28 -97 -98 -97 -192 1 -72 25 -128 72 -168 124
-104 265 110 186 281 -36 77 -99 108 -161 79z"/>
<path d="M5761 6718 c-77 -52 -104 -182 -58 -282 42 -90 110 -119 178 -73 92
61 106 246 26 333 -43 47 -98 56 -146 22z"/>
<path d="M4801 6133 c-66 -83 -80 -286 -27 -377 47 -81 133 -121 246 -114 57
3 77 9 112 34 38 26 43 35 46 72 3 37 0 43 -22 53 -21 10 -34 8 -75 -10 -88
-38 -164 -22 -198 42 -23 43 -21 136 6 211 16 46 18 62 9 80 -23 44 -66 49
-97 9z"/>
<path d="M4486 5384 c-43 -42 0 -95 129 -158 99 -50 179 -66 342 -73 219 -9
354 20 501 106 68 40 82 55 82 90 0 21 -30 51 -52 51 -8 0 -54 -18 -101 -40
-129 -61 -221 -82 -352 -82 -176 -1 -371 44 -457 103 -32 23 -71 24 -92 3z"/>
<path d="M2316 2248 c-23 -32 -20 -51 19 -170 83 -253 100 -408 91 -818 -8
-321 3 -527 29 -567 18 -27 60 -31 91 -9 23 17 25 76 7 206 -8 58 -10 189 -6
410 6 332 -1 450 -33 608 -22 109 -92 316 -115 341 -26 27 -64 27 -83 -1z"/>
<path d="M7771 2243 c-27 -23 -94 -228 -122 -375 -19 -100 -23 -166 -30 -583
-5 -258 -11 -492 -15 -518 -7 -57 12 -87 56 -87 72 0 80 57 84 650 3 484 6
512 82 738 39 120 41 145 14 172 -25 25 -42 25 -69 3z"/>
</g>
</svg>
